<svg xmlns="http://www.w3.org/2000/svg" aria-hidden="true" style="position:absolute;width:0;height:0;overflow:hidden"><defs><symbol id="arrow" viewBox="0 0 50 32"><path fill="#fff" d="M48.776 16.685c.371-.376.599-.893.599-1.464 0-.582-.238-1.109-.623-1.487L35.365.596a2.08 2.08 0 0 0-1.459-.595 2.08 2.08 0 0 0-1.489.625c-.371.377-.6.894-.6 1.464 0 .582.238 1.108.622 1.486l11.898 11.679-11.711 11.932a2.077 2.077 0 0 0-.599 1.464 2.08 2.08 0 0 0 2.082 2.082 2.08 2.08 0 0 0 1.491-.627l13.176-13.423zM.017 15.734l.017 2.087 47.271-.509-.033-4.174-47.271.509.017 2.087z" style="fill:var(--color1, #fff)"/></symbol><symbol id="favorite" viewBox="0 0 32 32"><path fill="#fff" d="M31 12.6H19.55L16 1.499l-3.55 11.1H1l9.25 6.851L6.749 30.5 16 23.651l9.25 6.85-3.55-11.1 9.3-6.8z" style="fill:var(--color1, #fff)"/></symbol><symbol id="logo" viewBox="0 0 82 32"><path d="M16 0h49.578c8.837 0 16 7.163 16 16s-7.163 16-16 16H16C7.163 32 0 24.837 0 16S7.163 0 16 0z"/></symbol></defs></svg>