<svg aria-hidden="true" style="position: absolute; width: 0; height: 0; overflow: hidden;" version="1.1" xmlns="http://www.w3.org/2000/svg" xmlns:xlink="http://www.w3.org/1999/xlink">
<defs>
<symbol id="arrow" viewBox="0 0 50 32">
<path fill="#fff" style="fill: var(--color1, #fff)" d="M48.776 16.685c0.371-0.376 0.599-0.893 0.599-1.464 0-0.582-0.238-1.109-0.623-1.487l-0-0-13.387-13.138c-0.376-0.368-0.891-0.595-1.459-0.595-0.583 0-1.11 0.239-1.489 0.625l-0 0c-0.371 0.377-0.6 0.894-0.6 1.464 0 0.582 0.238 1.108 0.622 1.486l0 0 11.898 11.679-11.711 11.932c-0.371 0.376-0.599 0.893-0.599 1.464 0 0.582 0.238 1.109 0.623 1.487l0 0c0.376 0.368 0.891 0.595 1.459 0.595 0.584 0 1.112-0.24 1.491-0.627l0-0 13.176-13.423zM0.017 15.734l0.017 2.087 47.271-0.509-0.033-4.174-47.271 0.509 0.017 2.087z"></path>
</symbol>
<symbol id="favorite" viewBox="0 0 32 32">
<path fill="#fff" style="fill: var(--color1, #fff)" d="M31 12.6h-11.45l-3.55-11.101-3.55 11.1h-11.45l9.25 6.851-3.501 11.050 9.251-6.849 9.25 6.85-3.55-11.1 9.3-6.8z"></path>
</symbol>
<symbol id="logo" viewBox="0 0 82 32">
<path d="M16 0h49.578c8.837 0 16 7.163 16 16s-7.163 16-16 16h-49.578c-8.837 0-16-7.163-16-16s7.163-16 16-16z"></path>
</symbol>
</defs>
</svg>
